<svg xmlns="http://www.w3.org/2000/svg" width="32" height="32" viewBox="0 0 8.467 8.467"><g transform="translate(-17.174 -.025)"><path fill="#0188d1" fill-opacity=".98" style="line-height:normal;font-variant-ligatures:normal;font-variant-position:normal;font-variant-caps:normal;font-variant-numeric:normal;font-variant-alternates:normal;font-feature-settings:normal;text-indent:0;text-align:start;text-decoration-line:none;text-decoration-style:solid;text-decoration-color:#000;text-transform:none;text-orientation:mixed;shape-padding:0;isolation:auto;mix-blend-mode:normal" d="m 23.854874,0.84232585 c -0.136073,-0.002658 -0.266297,0.0238413 -0.378271,0.0718302 C 23.178006,1.0421265 22.96449,1.2681396 22.832198,1.4004313 l -4.234367,4.2322996 a 0.26460979,0.26460979 0 0 0 -0.06253,0.1033531 l -0.529684,1.5880168 a 0.26460979,0.26460979 0 0 0 0.334347,0.3358967 L 19.92798,7.1308308 a 0.26460979,0.26460979 0 0 0 0.103353,-0.064596 l 4.2323,-4.2343667 C 24.395926,2.6995768 24.62194,2.4860607 24.74991,2.1874633 24.87788,1.8888659 24.856198,1.4638275 24.529252,1.1368815 24.324911,0.93253993 24.081663,0.84675614 23.854874,0.84232585 Z" color="#000" font-family="sans-serif" font-weight="400" overflow="visible" paint-order="markers fill stroke" white-space="normal"/><path fill="#0178be" style="line-height:normal;font-variant-ligatures:normal;font-variant-position:normal;font-variant-caps:normal;font-variant-numeric:normal;font-variant-alternates:normal;font-feature-settings:normal;text-indent:0;text-align:start;text-decoration-line:none;text-decoration-style:solid;text-decoration-color:#000;text-transform:none;text-orientation:mixed;shape-padding:0;isolation:auto;mix-blend-mode:normal" d="m 24.528218,1.1363647 -6.459037,6.4590372 a 0.26460979,0.26460979 0 0 0 0.270785,0.064596 l 1.588016,-0.5291667 a 0.26460979,0.26460979 0 0 0 0.103353,-0.064596 l 4.2323,-4.2343667 C 24.395926,2.6995768 24.62194,2.4860607 24.74991,2.1874633 24.87788,1.8888659 24.856198,1.4638275 24.529252,1.1368815 c -2.91e-4,-2.963e-4 -7.41e-4,-2.222e-4 -0.001,-5.159e-4 z" color="#000" font-family="sans-serif" font-weight="400" overflow="visible" paint-order="markers fill stroke" white-space="normal"/></g></svg>