<?xml version="1.0" encoding="UTF-8"?><svg xmlns="http://www.w3.org/2000/svg" xmlns:xlink="http://www.w3.org/1999/xlink" version="1.1" id="Layer_1" x="0px" y="0px" viewBox="0 0 150 150" xml:space="preserve"><style type="text/css">.st0{fill:#45B39C;} .st1{opacity:0.1;} .st2{fill:#F6C358;} .st3{fill:#FCD462;} .st4{fill:none;} .st5{fill:#DC8744;} .st6{fill:#334D5C;} .st7{fill:#EFC84A;} .st8{fill:#44C4A1;} .st9{fill:#3EA69B;} .st10{fill:#E1E6E9;} .st11{fill:#EBF0F3;} .st12{fill:#27A2DB;} .st13{fill:#2D93BA;} .st14{fill:#D5D6DB;} .st15{fill:#EA8953;} .st16{fill:#E56353;} .st17{fill:#E05B49;} .st18{fill:#31978C;} .st19{fill:#D15241;} .st20{fill:#64798A;} .st21{fill:#3A556A;} .st22{fill:#1C75A1;} .st23{fill:#FFFFFF;} .st24{fill:#2F4859;} .st25{fill:#3B566A;} .st26{fill:#64798A;stroke:#3B566A;stroke-width:2;stroke-linecap:round;stroke-linejoin:round;stroke-miterlimit:10;} .st27{fill:#CE412D;} .st28{fill:none;stroke:#2D93BA;stroke-width:4;stroke-miterlimit:10;}</style><path class="st0" fill="#45B39C" d="M11 11h128v128H11z"/><path class="st1" opacity="0.1" d="M88.943 60.299l-22.79-22.8-28.65 28.65 22.8 22.8 5.87 14.8 35.252 35.25H139v-37.564L103.743 66.18z"/><path class="st10" fill="#E1E6E9" d="M103.744 66.176l8.756 41.11-5.214 5.214-41.11-8.755-9.742-24.548-1.606-4.03 20.348-20.348 4.03 1.606z"/><path transform="matrix(0.7071068 -0.7071067 0.7071067 0.7071068 -41.0703888 99.1531906)" class="st14" fill="#D5D6DB" d="M97.16 83.963h3.986v30.38H97.16z"/><ellipse transform="matrix(0.7071068 -0.7071068 0.7071068 0.7071068 -34.7439842 83.8797455)" class="st20" cx="83.8798218" cy="83.87957" rx="6.6428275" ry="6.6428504" fill="#64798A"/><path class="st14" fill="#D5D6DB" d="M75.173 54.825L54.826 75.173 37.5 66.153 66.153 37.5z"/><path class="st20" fill="#64798A" d="M79.206 56.425L56.434 79.197l-1.606-4.03 20.348-20.348z"/><metadata><rdf:RDF xmlns:rdf="http://www.w3.org/1999/02/22-rdf-syntax-ns#" xmlns:rdfs="http://www.w3.org/2000/01/rdf-schema#" xmlns:dc="http://purl.org/dc/elements/1.1/"><rdf:Description about="https://iconscout.com/legal#licenses" dc:title="edit,pen,notes,write" dc:description="edit,pen,notes,write" dc:publisher="Iconscout" dc:date="2017-11-08" dc:format="image/svg+xml" dc:language="en"><dc:creator><rdf:Bag><rdf:li>Dinosoft Labs</rdf:li></rdf:Bag></dc:creator></rdf:Description></rdf:RDF></metadata></svg>